<svg xmlns="http://www.w3.org/2000/svg" xmlns:svg="http://www.w3.org/2000/svg" xmlns:xlink="http://www.w3.org/1999/xlink" id="svg1" width="24" height="24" version="1.1" viewBox="0 0 24 24"><defs id="defs1"><linearGradient id="linearGradient2"><stop style="stop-color:#e95c13;stop-opacity:1" id="stop2" offset="0"/><stop style="stop-color:#ab3f13;stop-opacity:1" id="stop3" offset="1"/></linearGradient><radialGradient id="radialGradient3" cx="5.558" cy="13.443" r="5.596" fx="5.558" fy="13.443" gradientTransform="matrix(1.4695251,0.1096904,-0.08155243,1.09256,-1.8218873,-1.0565712)" gradientUnits="userSpaceOnUse" xlink:href="#linearGradient2"/></defs><g id="g1" style="stroke:#fff;stroke-opacity:1"><g id="g2" transform="translate(9.9262115,2.1808468)" style="opacity:.532;stroke:#fff;stroke-opacity:1"><path id="rect1-9" d="m 1.2941,1.2941 h 3.4959812 c 0,0 0,0.2028976 0,0.4549275 v 2.5861263 c 0,0.2520298 0,0.4549274 0,0.4549274 H 1.2941 c 0,0 0,-0.2028976 0,-0.4549274 V 1.7490275 c 0,-0.2520299 0,-0.4549275 0,-0.4549275 z m 6.0924833,11.844404 h 3.4959807 v 0.454928 2.586126 0.454928 H 7.3865833 V 16.179558 13.593432 Z M 4.6382088,4.8380925 7.8564832,13.088119" style="stroke:#fff;stroke-opacity:1;opacity:1;fill:none;stroke-width:2.996;stroke-linecap:round;stroke-dasharray:none;paint-order:markers fill stroke"/><path style="opacity:1;fill:#000;fill-opacity:1;stroke:#000;stroke-width:.8;stroke-linecap:butt;stroke-linejoin:miter;stroke-dasharray:none;stroke-opacity:1" id="path1" d="M 4.9399834,5.5606814 7.6395903,12.318786"/><path id="rect1-4" d="m 7.3864963,13.138183 h 3.4959807 v 0.454928 2.586126 0.454928 H 7.3864963 v -0.454928 -2.586126 z" style="fill:none;stroke:#e9421e;stroke-width:.5962;stroke-linecap:round;stroke-opacity:1;paint-order:markers fill stroke;opacity:1"/><path id="rect1" d="M 1.2936418,1.2936418 H 4.789623 c 0,0 0,0.2028976 0,0.4549275 v 2.5861263 c 0,0.2520298 0,0.4549274 0,0.4549274 H 1.2936418 c 0,0 0,-0.2028976 0,-0.4549274 V 1.7485693 c 0,-0.2520299 0,-0.4549275 0,-0.4549275 z" style="fill:none;stroke:#e9421e;stroke-width:.5962;stroke-linecap:round;stroke-opacity:1;paint-order:markers fill stroke;fill-opacity:1;opacity:1"/></g><rect style="fill:url(#radialGradient3);stroke:#000;stroke-width:.43399;stroke-linecap:square;stroke-miterlimit:3.3;stroke-dasharray:none;stroke-opacity:1;paint-order:markers fill stroke" id="rect2" width="9.663" height="9.663" x="2.617" y="11.72" rx="0" ry=".406"/><path style="font-size:11.8981px;line-height:1.25;font-family:Avalon;-inkscape-font-specification:Avalon;letter-spacing:0;word-spacing:0;fill:#fff;stroke:none;stroke-width:.238252" id="text3" d="M 4.2852316,20.13419 6.7058605,16.627137 4.2852316,13.091494 h 1.5533957 l 1.639166,2.458749 1.6868158,-2.458749 H 10.679885 L 8.2401961,16.627137 10.679885,20.13419 H 9.1646091 L 7.4777933,17.704031 5.8386273,20.13419 Z" aria-label="X"/></g></svg>