<svg xmlns="http://www.w3.org/2000/svg" xmlns:svg="http://www.w3.org/2000/svg" id="svg1" width="24" height="24" version="1.1" viewBox="0 0 24 24"><g id="g1"><path style="fill:none;stroke:#fff;stroke-width:3.7;stroke-linecap:butt;stroke-linejoin:miter;stroke-opacity:1;stroke-dasharray:none" id="path2" d="M 8.1878863,5.5475896 H 20.499382 V 18.571075 H 4.4202719 V 8.5735476 H 17.384425 V 15.485785 H 7.2682324 v -3.708282 h 3.4709516"/><path style="fill:none;stroke:#000;stroke-width:1px;stroke-linecap:butt;stroke-linejoin:miter;stroke-opacity:1" id="path1" d="M 8.1878863,5.5475896 H 20.499382 V 18.571075 H 4.4202719 V 8.5735476 H 17.384425 V 15.485785 H 7.2682324 v -3.708282 h 3.4709516"/><path id="rect1-9-1" d="m 11.249978,10.284588 h 3.495981 c 0,0 0,0.202898 0,0.454928 v 2.586126 c 0,0.25203 0,0.454928 0,0.454928 h -3.495981 c 0,0 0,-0.202898 0,-0.454928 v -2.586126 c 0,-0.25203 0,-0.454928 0,-0.454928 z" style="fill:none;stroke:#fff;stroke-width:1.896;stroke-linecap:round;stroke-dasharray:none;stroke-opacity:1;paint-order:markers fill stroke"/><path id="rect1-2" d="m 11.24952,10.28413 h 3.495981 c 0,0 0,0.202898 0,0.454928 v 2.586126 c 0,0.25203 0,0.454927 0,0.454927 H 11.24952 c 0,0 0,-0.202897 0,-0.454927 v -2.586126 c 0,-0.25203 0,-0.454928 0,-0.454928 z" style="fill:none;stroke:#df421e;stroke-width:.5962;stroke-linecap:round;stroke-opacity:1;paint-order:markers fill stroke"/><path id="rect1-9" d="m 4.1461459,3.1943535 h 3.495981 c 0,0 0,0.2028976 0,0.4549275 v 2.5861263 c 0,0.2520298 0,0.4549274 0,0.4549274 h -3.495981 c 0,0 0,-0.2028976 0,-0.4549274 V 3.649281 c 0,-0.2520299 0,-0.4549275 0,-0.4549275 z" style="fill:none;stroke:#fff;stroke-width:1.896;stroke-linecap:round;stroke-dasharray:none;stroke-opacity:1;paint-order:markers fill stroke"/><path id="rect1" d="m 4.1456879,3.1938953 h 3.495981 c 0,0 0,0.2028976 0,0.4549275 v 2.5861263 c 0,0.2520298 0,0.4549274 0,0.4549274 h -3.495981 c 0,0 0,-0.2028976 0,-0.4549274 V 3.6488228 c 0,-0.2520299 0,-0.4549275 0,-0.4549275 z" style="fill:none;stroke:#df421e;stroke-width:.5962;stroke-linecap:round;stroke-opacity:1;paint-order:markers fill stroke"/></g></svg>